<svg id="Ebene_3_Kopie_Kopie_2" data-name="Ebene 3 Kopie Kopie 2" xmlns="http://www.w3.org/2000/svg" viewBox="0 0 1000 706.93"><defs><style>.cls-1{fill:#fff;}</style></defs><path class="cls-1" d="M496.87,505.62a26.37,26.37,0,0,1-41.74,18.2L314.56,421.18a26.37,26.37,0,0,1,4.63-45.3l25.14-11.43a19.09,19.09,0,0,1,24,7.11c78.63,123.28,131.41,162.13,71.8-27.28A24.25,24.25,0,0,1,453.2,315l27.3-12.41a26.37,26.37,0,0,1,37.11,27.09Z" transform="translate(-50 -163.65)"/><path class="cls-1" d="M779.13,548.49A26.37,26.37,0,0,1,740,525.19l1.47-174.05A26.37,26.37,0,0,1,781,328.5l23.94,13.77a19.06,19.06,0,0,1,8.2,23.63c-54.34,135.74-55.14,201.28,64,42.44a24.25,24.25,0,0,1,31.45-6.46l26,14.95a26.37,26.37,0,0,1-.39,45.94Z" transform="translate(-50 -163.65)"/><path class="cls-1" d="M614.26,786.65c-17.4,25.21-55.5,22.31-68.91-5.23L429.67,543.84c-13.41-27.54,7.81-59.32,38.38-57.47l41.83,2.53A29,29,0,0,1,537,515.49c17.92,221.24,61.15,310.86,115.69,14.41a36.76,36.76,0,0,1,38.38-30l45.44,2.75c31.11,1.88,48.23,37,30.52,62.69Z" transform="translate(-50 -163.65)"/><path class="cls-1" d="M152.42,395.77a27.56,27.56,0,0,1,1.42-2.89l9.07-16.09C178.26,393.06,172.37,398.43,152.42,395.77Z" transform="translate(-50 -163.65)"/><path class="cls-1" d="M554,230.88l-8.8,13.05A20.66,20.66,0,0,1,554,230.88Z" transform="translate(-50 -163.65)"/><path class="cls-1" d="M554,230.88l-8.8,13.05A20.66,20.66,0,0,1,554,230.88Z" transform="translate(-50 -163.65)"/><path class="cls-1" d="M922.32,280.52c-5.54,8.74-9.7,6-12.53-4.77Z" transform="translate(-50 -163.65)"/><path class="cls-1" d="M545.19,243.93,483,336a21,21,0,0,1-36.15-2.37L385,209.75a21,21,0,0,1,19.8-30.33l21.94,1.1a15.17,15.17,0,0,1,14.36,13.79c10.6,115.85,33.73,162.59,60.72,6.93a19.28,19.28,0,0,1,20-16l23.83,1.19a21,21,0,0,1,16.34,32.7L554,230.88A20.66,20.66,0,0,0,545.19,243.93Z" transform="translate(-50 -163.65)"/><path class="cls-1" d="M638.41,750.46,639.58,846a23.66,23.66,0,0,1-23.38,24l-53.31.66a23.67,23.67,0,0,1-24-23.39l-1.18-95.49a28.57,28.57,0,0,1,19.8-27.54,10.06,10.06,0,0,1,11.76,4.44c10.74,18.06,22,30.54,36.84.9a11.16,11.16,0,0,1,14-5.36A28.61,28.61,0,0,1,638.41,750.46Z" transform="translate(-50 -163.65)"/><path class="cls-1" d="M725.12,331.94,690.28,505.69a26.37,26.37,0,0,1-43.06,14.79L515.36,406.86a26.37,26.37,0,0,1,8.26-44.78l26-9.37a19.08,19.08,0,0,1,23.34,9C641.39,490.93,690.88,533.9,646.7,340.3a24.23,24.23,0,0,1,.43-12.39l-93.07-62.18a20.87,20.87,0,0,1-8.87-21.8l8.8-13.05a23.62,23.62,0,0,1,2.25-1.31l19.6-9.91a15.18,15.18,0,0,1,19.31,4.85C661.75,319.9,705,349,651.32,200.45a19.26,19.26,0,0,1,9.43-23.74L682,165.94a21,21,0,0,1,30.39,20.31l-8.66,114.48A26.41,26.41,0,0,1,725.12,331.94Z" transform="translate(-50 -163.65)"/><path class="cls-1" d="M374.24,392.66c9.95,17.54-2.75,39.27-23,39.29l-174.38.17a26.16,26.16,0,0,1-21.77-11.37H68.24c-13.94,0-22.71-14.09-15.87-25.49l9.37-15.59A13.6,13.6,0,0,1,78,374.22c31.71,11.63,57.89,19.35,74.4,21.55,20,2.66,25.84-2.71,10.49-19-9.65-10.22-27.7-24.76-56-44.31a15.1,15.1,0,0,1-4.64-20.35l10.17-16.94c7-11.6,24.76-11.6,31.73,0l38.43,64a19,19,0,0,1,8.36,1.25c136.51,53,202.16,53.18,41.91-64.35a24.18,24.18,0,0,1-6.77-31.36l14.74-26.1a26.45,26.45,0,0,1,46-.05Z" transform="translate(-50 -163.65)"/><path class="cls-1" d="M1041.93,360.15l-111.1,86.78a21,21,0,0,1-33.65-13.41l-20.65-137a21,21,0,0,1,13.54-22.85l-2-4.94L793.65,367.3a21,21,0,0,1-35.22-8.46l-40-132.59a21,21,0,0,1,24.66-26.54l21.44,4.81a15.19,15.19,0,0,1,11.82,16c-9.2,116,5.68,166,58.66,17.13a19.26,19.26,0,0,1,22.36-12.34l14.58,3.26a12.07,12.07,0,0,1,13.17-15.24L897.63,215a8.72,8.72,0,0,1,7.6,8.56c.27,23.13,1.77,41.59,4.56,52.21,2.83,10.81,7,13.51,12.53,4.77,4.76-7.53,10.56-23.56,17.41-50.22a11.09,11.09,0,0,1,12.17-8.24l13.61,1.78a12.07,12.07,0,0,1,7.87,19.49L934.55,292a15.12,15.12,0,0,1,.12,7.21C909,412.66,916.56,464.26,990.28,324.53a19.29,19.29,0,0,1,23.91-9l22.29,8.49A21,21,0,0,1,1041.93,360.15Z" transform="translate(-50 -163.65)"/></svg>